# xmcd
#
# Track frame offsets: 
#        150
#        12047
#        29515
#        43597
#        67957
#        87034
#        99834
#        120058
#        134313
#        151274
#        167460
#        189748
#        208915
#
# Disc length: 3030 seconds
#
# Revision: 2
# Processed by: cddbd v1.5.2PL0 Copyright (c) Steve Scherf et al.
# Submitted via: ExactAudioCopyFreeDBPlugin 1.0
#
DISCID=970bd40d
DTITLE=Jare and VilleGalle - Mustaa Kultaa
DYEAR=2011
DGENRE=Hip-Hop
TTITLE0=Intro
TTITLE1=Kasarin Lapset (feat. Timo Pieni Huijaus)
TTITLE2=Häissä (feat. Märkä-Simo)
TTITLE3=Raiders (feat. Ruudolf and Karrikoira)
TTITLE4=Faija (feat. Nopsajalka)
TTITLE5=Edustusvaimo
TTITLE6=Holidai (feat. Juno)
TTITLE7=Konkeli
TTITLE8=Hyvä Häviäjä (feat. Pyhimys)
TTITLE9=Nelisilmä (feat. Heikki Kuula)
TTITLE10=Epoo (feat. Heikki Kuula)
TTITLE11=Iha Finaalis
TTITLE12=Koutsi Hoitaa [Unlisted Track]
EXTD=
EXTT0=
EXTT1=
EXTT2=
EXTT3=
EXTT4=
EXTT5=
EXTT6=
EXTT7=
EXTT8=
EXTT9=
EXTT10=
EXTT11=
EXTT12=
PLAYORDER=
